# xmcd
#
# Track frame offsets:
#	150
#	11818
#	27951
#	43090
#	59217
#	74259
#	92314
#	108900
#	127036
#	139796
#	156715
#	172051
#
# Disc length: 2499 seconds
#
# Revision: 2
# Processed by: cddbd v1.5.2PL0 Copyright (c) Steve Scherf et al.
# Submitted via: audiograbber 1.83.01
#
DISCID=b009c10c
DTITLE=Duane Steele - This Is the Life
DYEAR=1997
DGENRE=Country
TTITLE0=Tell the Girl
TTITLE1=Leavin' Made Easy
TTITLE2=Little Black Dress
TTITLE3=Let's Go for a Drive
TTITLE4=This Is the Life
TTITLE5=Little Cabin
TTITLE6=Just Like Love
TTITLE7=If You Could Read My Mind
TTITLE8=If I Could Just Get to You
TTITLE9=Keep the Change
TTITLE10=The Meaning of Life
TTITLE11=Right From the Start
EXTD=
EXTT0=
EXTT1=
EXTT2=
EXTT3=
EXTT4=
EXTT5=
EXTT6=
EXTT7=
EXTT8=
EXTT9=
EXTT10=
EXTT11=
PLAYORDER=
